<svg xmlns="http://www.w3.org/2000/svg" viewBox="0 0 23.72 23.72"><defs><style>.cls-1{fill:#9B9897;}</style></defs><title>lyonn-logo</title><g id="Capa_2" data-name="Capa 2"><g id="Capa_1-2" data-name="Capa 1"><path class="cls-1" d="M11.86,0A11.86,11.86,0,1,0,23.72,11.86,11.86,11.86,0,0,0,11.86,0ZM8.56,14.31c.1-.24.06-.73-.35-.73a2.2,2.2,0,0,1-1.88-2.24,1.06,1.06,0,0,1,0-.31.74.74,0,0,1,1.18-.47,1.88,1.88,0,0,0,1.81.29c.45-.17.53,1.41.58,2.26.07,1.09,1.57.7,1.57,1.86A1.37,1.37,0,0,1,10,16.42,1.66,1.66,0,0,1,8.56,14.31ZM14,17.6a.81.81,0,0,1-.81.81H10.67a.81.81,0,0,1-.81-.81h0a.52.52,0,0,1,.41-.51l1.65-.53,1.64.53a.52.52,0,0,1,.41.51Zm1.65-4c-.41,0-.45.49-.35.73a1.66,1.66,0,0,1-1.41,2.11A1.37,1.37,0,0,1,12.31,15c0-1.16,1.5-.77,1.57-1.86,0-.85.14-2.43.58-2.26a1.88,1.88,0,0,0,1.81-.29.74.74,0,0,1,1.18.47,1.06,1.06,0,0,1,.05.31A2.2,2.2,0,0,1,15.62,13.58Zm1-3.91c-2.87,0-3.28.31-3.31,3.19a.39.39,0,0,1-.39.39H11a.39.39,0,0,1-.39-.39c0-2.88-.44-3.19-3.3-3.19-1.85,0-1.53-2.63.75-3a1.85,1.85,0,0,1,1,.11l2.09.89a1.94,1.94,0,0,0,1.53,0l2.1-.89a1.68,1.68,0,0,1,.91-.13C18.08,7,18.44,9.67,16.57,9.67Z"/></g></g></svg>
