<svg xmlns="http://www.w3.org/2000/svg" viewBox="0 0 186 46.13"><defs><style>.cls-1{fill:#211915;}</style></defs><title>sociall-logo</title><g id="Capa_2" data-name="Capa 2"><g id="Capa_1-2" data-name="Capa 1"><path class="cls-1" d="M7,12A8.08,8.08,0,0,1,5.12,11a3.35,3.35,0,0,1-1-1.33A4.92,4.92,0,0,1,3.8,7.71a4.09,4.09,0,0,1,.48-1.93,5.24,5.24,0,0,1,1.3-1.6,6.6,6.6,0,0,1,4.19-1.5,5.69,5.69,0,0,1,1.36.13,4.07,4.07,0,0,1,.95.33,4.68,4.68,0,0,1,.78.5c.24.19.52.4.84.62a3.49,3.49,0,0,1,.71.68L17,3.74c-.41-.43-.85-.86-1.32-1.31A9.72,9.72,0,0,0,14.1,1.24,8.9,8.9,0,0,0,12.15.36,8,8,0,0,0,9.77,0,8.93,8.93,0,0,0,6.7.57,9.28,9.28,0,0,0,4,2.13,8.35,8.35,0,0,0,2,4.55a6.56,6.56,0,0,0-.76,3.16,7.31,7.31,0,0,0,.57,3.12,5.67,5.67,0,0,0,1.6,2,10,10,0,0,0,2.48,1.42L7.64,15l2-2C8.62,12.64,7.74,12.31,7,12Z"/><path class="cls-1" d="M13.38,26.49a6.72,6.72,0,0,1-2.27,1,8.57,8.57,0,0,1-2.5.28c-.41,0-.8,0-1.18-.06a4.76,4.76,0,0,1-1.18-.24,6.13,6.13,0,0,1-1.31-.62,9.59,9.59,0,0,1-1.55-1.22c-.24-.23-.66-.59-1-.9L0,25.63a11.27,11.27,0,0,0,.82,1.2,11.42,11.42,0,0,0,1.24,1.32,9.61,9.61,0,0,0,6.55,2.3,11.75,11.75,0,0,0,3.73-.58A9.06,9.06,0,0,0,15.4,28.2a7.93,7.93,0,0,0,2.08-2.65A7.74,7.74,0,0,0,18.25,22a10.43,10.43,0,0,0-.59-3.56,6.09,6.09,0,0,0-2.05-2.74A9.15,9.15,0,0,0,14.44,15a13.51,13.51,0,0,0-1.32-.65l-.56-.22-2.05,2,1.17.43a7.89,7.89,0,0,1,2.09,1.07,4.42,4.42,0,0,1,1.38,1.67,6.24,6.24,0,0,1,.5,2.74A5.26,5.26,0,0,1,15,24.68,5.59,5.59,0,0,1,13.38,26.49Z"/><path class="cls-1" d="M52.62,5.57,50.76,7.44a13.39,13.39,0,0,1,1.72,2.88,12.13,12.13,0,0,1,1,4.92,12.49,12.49,0,0,1-1.73,6.38,12.93,12.93,0,0,1-2,2.56,12.64,12.64,0,0,1-2.56,2,12.68,12.68,0,0,1-9.74,1.28,12.18,12.18,0,0,1-3-1.28,13.1,13.1,0,0,1-1.44-1L31.18,27a15.66,15.66,0,0,0,3.74,2.26,15.25,15.25,0,0,0,11.86,0,15.21,15.21,0,0,0,8.1-8.11,14.79,14.79,0,0,0,1.2-5.93,14.8,14.8,0,0,0-1.2-5.94A15.28,15.28,0,0,0,52.62,5.57Z"/><path class="cls-1" d="M29.94,21.62a12.82,12.82,0,0,1-1.28-3,12.5,12.5,0,0,1,0-6.72,12.82,12.82,0,0,1,1.28-3,11.72,11.72,0,0,1,2-2.56,13.36,13.36,0,0,1,2.56-2,12.16,12.16,0,0,1,3-1.27,12.5,12.5,0,0,1,3.36-.45,12.13,12.13,0,0,1,4.92,1,13.12,13.12,0,0,1,3,1.82l1.86-1.86A15.61,15.61,0,0,0,46.78,1.2a15.25,15.25,0,0,0-11.86,0A15.28,15.28,0,0,0,26.8,9.3a14.8,14.8,0,0,0-1.2,5.94,14.79,14.79,0,0,0,1.2,5.93A15.17,15.17,0,0,0,29.17,25L31,23.18A12,12,0,0,1,29.94,21.62Z"/><polygon class="cls-1" points="101.5 0.35 98.9 0.35 98.9 12.67 101.5 10.07 101.5 0.35"/><polygon class="cls-1" points="101.5 30.14 101.5 14.07 98.9 16.67 98.9 30.14 101.5 30.14"/><polygon class="cls-1" points="147.83 0.35 145.23 0.35 145.23 27.92 147.83 25.32 147.83 0.35"/><polygon class="cls-1" points="161.47 30.14 161.47 27.55 149.6 27.55 147 30.14 161.47 30.14"/><polygon class="cls-1" points="172.36 0.35 169.76 0.35 169.76 28.19 172.36 25.59 172.36 0.35"/><polygon class="cls-1" points="174.4 27.55 171.81 30.14 186 30.14 186 27.55 174.4 27.55"/><path class="cls-1" d="M89.87,4.29h0a15.43,15.43,0,0,0-4.76-3.15A14.91,14.91,0,0,0,79.29,0a14.67,14.67,0,0,0-5.92,1.2,15.24,15.24,0,0,0-4.84,3.26A15.4,15.4,0,0,0,65.27,9.3a14.9,14.9,0,0,0-1.16,4.87l3.36-3.36a12.41,12.41,0,0,1,.92-2,11.72,11.72,0,0,1,2-2.56,13.36,13.36,0,0,1,2.56-2,12.25,12.25,0,0,1,2-.93L75,3.3l0,0c.31-.11.61-.21.92-.29a12.82,12.82,0,0,1,7.21.14,13,13,0,0,1,2,.87C86.23,4.69,87.87,6,87.87,6l2-1.64Z"/><path class="cls-1" d="M87.87,24.54s-1.32,1-2.36,1.69a13.75,13.75,0,0,1-2.38,1.05,12.25,12.25,0,0,1-3.84.6,12.5,12.5,0,0,1-3.36-.45,12.18,12.18,0,0,1-3-1.28,12.93,12.93,0,0,1-2.56-2,12.22,12.22,0,0,1-2-2.56,12.82,12.82,0,0,1-1.28-3,12.35,12.35,0,0,1-.45-3L64.31,18a14.31,14.31,0,0,0,1,3.21,15.21,15.21,0,0,0,8.1,8.11,14.67,14.67,0,0,0,5.92,1.2,14.92,14.92,0,0,0,5.8-1.13,16.1,16.1,0,0,0,2.19-1.12l.06,0,.19-.13a15.34,15.34,0,0,0,2.31-1.81l.09-.07Z"/><rect class="cls-1" x="153.35" y="41.52" width="32.65" height="0.81"/><rect class="cls-1" y="41.52" width="32.65" height="0.81"/><path class="cls-1" d="M46.93,45.3H42.7V42.06h3.58a.12.12,0,0,0,.14-.14V41.5a.12.12,0,0,0-.14-.14H42.69V38.53H46.9c.09,0,.14,0,.14-.13V38a.13.13,0,0,0-.14-.14H42c-.09,0-.13.05-.13.14l0,7.9c0,.09.05.13.14.13h4.92c.09,0,.13,0,.13-.13v-.43C47.06,45.35,47,45.3,46.93,45.3Z"/><path class="cls-1" d="M67,37.83h-.49a.16.16,0,0,0-.16.12l-2.58,7h-.07l-2.57-7c0-.08-.08-.12-.16-.12h-.5c-.1,0-.15.06-.11.16l2.88,7.9a.15.15,0,0,0,.16.11h.68a.15.15,0,0,0,.15-.11L67.1,38C67.13,37.89,67.08,37.83,67,37.83Z"/><path class="cls-1" d="M85.57,45.3H81.35V42.06h3.58c.09,0,.13,0,.13-.14V41.5c0-.1,0-.14-.13-.14H81.34l0-2.83h4.23c.09,0,.14,0,.14-.13V38a.13.13,0,0,0-.14-.14H80.69c-.09,0-.13.05-.13.14l0,7.9c0,.09,0,.13.14.13h4.91c.09,0,.14,0,.14-.13v-.43A.13.13,0,0,0,85.57,45.3Z"/><path class="cls-1" d="M105.4,37.83h-.48a.13.13,0,0,0-.14.14l0,7-4.35-7.08a.18.18,0,0,0-.16-.09h-.79a.13.13,0,0,0-.14.14l0,7.9c0,.09,0,.13.13.13H100c.09,0,.13,0,.13-.13l0-7.2,4.44,7.24a.17.17,0,0,0,.16.09h.76c.09,0,.13,0,.13-.13l0-7.9A.13.13,0,0,0,105.4,37.83Z"/><path class="cls-1" d="M125,37.83h-5.87a.13.13,0,0,0-.14.14v.43c0,.09,0,.13.14.13h2.55l0,7.34c0,.09.05.13.14.13h.55c.09,0,.14,0,.14-.13l0-7.34H125c.09,0,.13,0,.13-.13V38C125.08,37.88,125,37.83,125,37.83Z"/><path class="cls-1" d="M141.62,41.47l-.49-.14c-1.34-.42-2-.76-2-1.6s.7-1.32,1.88-1.32a2.39,2.39,0,0,1,2.21,1.23.15.15,0,0,0,.15.1h.49c.09,0,.14-.05.1-.15A2.92,2.92,0,0,0,141,37.71c-1.56,0-2.76.8-2.73,2.12,0,1.16.9,1.72,2.4,2.2l.5.15c1.45.47,2.12,1,2.12,1.82s-.76,1.43-2,1.43a2.46,2.46,0,0,1-2.53-1.52.17.17,0,0,0-.16-.1h-.51A.11.11,0,0,0,138,44a3.12,3.12,0,0,0,3.29,2.17c1.75,0,2.86-.85,2.86-2.23C144.13,42.77,143.37,42,141.62,41.47Z"/><polygon class="cls-1" points="124.86 7.32 124.34 7.13 124.34 6.45 123.61 6.45 124.34 6.37 124.44 6.36 127.12 6.04 127.17 6.04 127.13 5.73 127.07 5.24 126.78 5.27 124.1 5.58 122.91 5.72 122.45 5.78 123.06 5.39 123.82 4.91 125.22 4.01 125.17 3.93 124.98 3.63 124.79 3.33 124.32 3.63 123.85 3.93 123.62 4.08 123.41 4.21 121.94 5.15 122.58 3.93 122.74 3.63 123.97 1.28 123.26 0.91 121.82 3.63 121.67 3.93 121.22 4.77 121.2 3.93 121.19 3.63 121.18 3.23 121.1 0.94 120.4 0.96 120.3 0.96 120.38 3.63 120.42 4.87 119.52 3.63 119.19 3.19 118.59 3.63 118.54 3.66 119.92 5.54 116.47 4.33 116.2 5.1 119.65 6.31 119.23 6.45 116.41 7.45 116.67 8.21 119.42 7.24 111.42 25.56 111.42 25.56 109.42 30.14 110.58 30.14 112.28 30.14 114.24 25.56 115.3 23.1 116.47 20.5 121.92 8 123.64 9.96 124.25 9.42 122.35 7.27 124.34 7.99 125.3 8.34 126.96 8.94 127.23 8.18 124.86 7.32"/><path class="cls-1" d="M135.81,25.92l-1.41-3.25c-.89-2.05-1.79-4.1-2.68-6.14l3,1.72.41-.7-4-2.26v0l0-.08,4.29.24.05-.8-4.65-.27,3-1.26-.31-.75-2.28,1-.82.34h0l0,0,.83-1.06,1.83-2.36-.64-.5-1.19,1.54-1.2,1.54-.28.37.11-.77.43-3-.8-.12L129.28,11l-.3,2.13-.92-1.87-.72.36,1,2.09-1-.55-2.22-1.24-.4.7,2.73,1.53.42.24v0l-3.36.55.13.8,3.48-.57-1.78,1.95.6.55,1.6-1.76,2,4.58,1.15,2.6,1.9,4.34,1.18,2.7h2.82Z"/></g></g></svg>