<svg xmlns="http://www.w3.org/2000/svg" viewBox="0 0 48.68 48.94"><defs><style>.cls-1{fill:#b99957;}</style></defs><title>antifaz</title><g id="Capa_2" data-name="Capa 2"><g id="Capa_1-2" data-name="Capa 1"><path class="cls-1" d="M44.13,23a14.69,14.69,0,0,0,3.09-5.51A35.41,35.41,0,0,0,48.68,6.68a1,1,0,0,0-1.74-.62,2.78,2.78,0,0,1-4.14.64A9.49,9.49,0,0,0,36.47,5a16.07,16.07,0,0,0-4.94,1.5c-.57.24-1.1.48-1.6.65a.53.53,0,0,1-.5-.07.55.55,0,0,1-.24-.46v0c0-2.61-1.58-3.85-2.86-4.85A5,5,0,0,1,25,.39.73.73,0,0,0,24.34,0a.7.7,0,0,0-.63.39,5.21,5.21,0,0,1-1.36,1.32c-1.28,1-2.86,2.24-2.86,4.85v0a.55.55,0,0,1-.24.46.53.53,0,0,1-.5.07c-.5-.17-1-.41-1.59-.65A16.22,16.22,0,0,0,12.21,5,9.45,9.45,0,0,0,5.89,6.7a2.79,2.79,0,0,1-4.15-.64A1,1,0,0,0,0,6.68,35.73,35.73,0,0,0,1.46,17.53,14.69,14.69,0,0,0,4.55,23a9,9,0,0,0,5.82,2.85c6.07.6,9.47,2.15,11.25,3.34a4.92,4.92,0,0,0,5.44,0c1.79-1.19,5.18-2.74,11.25-3.34A9,9,0,0,0,44.13,23m-6,1.42c-6.36.63-10,2.29-11.9,3.57a3.48,3.48,0,0,1-3.85,0c-1.92-1.28-5.55-2.94-11.91-3.57-3.6-.35-6.19-2.84-7.68-7.38a32.55,32.55,0,0,1-1.39-9.3A4.17,4.17,0,0,0,3,8.64a4.34,4.34,0,0,0,3.66-.75c4-2.66,7.14-1.31,9.91-.11.58.25,1.13.49,1.68.68a2,2,0,0,0,1.81-.24,2,2,0,0,0,.85-1.64v0c0-1.92,1.12-2.79,2.3-3.71a13.4,13.4,0,0,0,1.11-1,13.4,13.4,0,0,0,1.11,1c1.19.92,2.31,1.79,2.31,3.71v0a2,2,0,0,0,.85,1.64,2,2,0,0,0,1.8.24c.55-.19,1.1-.43,1.68-.68,2.77-1.2,5.9-2.55,9.91.11a4.34,4.34,0,0,0,3.66.75,4.17,4.17,0,0,0,1.58-.86,32.5,32.5,0,0,1-1.38,9.3c-1.5,4.54-4.09,7-7.69,7.38"/><path class="cls-1" d="M19,13.41a6,6,0,0,0-4.72-1.2c-4.68.61-6.23-.59-6.35-.68a.67.67,0,0,0-.85-.14.73.73,0,0,0-.35.82c1,3.76,2.79,6.33,5.43,7.64a9.83,9.83,0,0,0,4.39,1,13.27,13.27,0,0,0,4.77-.9.72.72,0,0,0,.44-.71c0-.16-.31-3.8-2.76-5.8m-6.2,5.16a8.81,8.81,0,0,1-4.2-5.16,14.11,14.11,0,0,0,5.86.23,4.6,4.6,0,0,1,3.63.87,7.31,7.31,0,0,1,2.17,4.27c-1.25.41-4.55,1.23-7.46-.21"/><path class="cls-1" d="M41.59,11.39a.67.67,0,0,0-.85.14c-.12.09-1.67,1.29-6.34.68a6,6,0,0,0-4.73,1.2c-2.45,2-2.75,5.64-2.76,5.8a.72.72,0,0,0,.44.71,13.27,13.27,0,0,0,4.77.9,9.83,9.83,0,0,0,4.39-1C39.15,18.54,41,16,41.94,12.21a.71.71,0,0,0-.35-.82m-5.71,7.17c-2.9,1.45-6.22.62-7.47.22a7.23,7.23,0,0,1,2.17-4.26,4.56,4.56,0,0,1,3.63-.88,14.09,14.09,0,0,0,5.86-.23,8.75,8.75,0,0,1-4.19,5.15"/><path class="cls-1" d="M47.18,32.19V21.61a.72.72,0,1,0-1.43,0V32h-1v-6.6a.72.72,0,1,0-1.43,0v6.83a1.8,1.8,0,0,0-.91,1.56v13.4a1.79,1.79,0,0,0,1.79,1.79H46.3a1.79,1.79,0,0,0,1.79-1.79V33.75a1.78,1.78,0,0,0-.91-1.56m-.52,15a.36.36,0,0,1-.36.36H44.16a.36.36,0,0,1-.36-.36V33.75a.36.36,0,0,1,.36-.36H46.3a.36.36,0,0,1,.36.36Z"/><path class="cls-1" d="M25.83,5.62a7.12,7.12,0,0,0-1.06-1,.74.74,0,0,0-.85,0,6.92,6.92,0,0,0-1.07,1,4.17,4.17,0,0,0-1.11,2.65,4.19,4.19,0,0,0,1.11,2.65,7.55,7.55,0,0,0,1.07,1,.71.71,0,0,0,.42.14.76.76,0,0,0,.43-.14,7.8,7.8,0,0,0,1.06-1A4.21,4.21,0,0,0,27,8.27a4.19,4.19,0,0,0-1.12-2.65m-1.49,4.79a3.34,3.34,0,0,1-1.17-2.14,3.41,3.41,0,0,1,1.17-2.15,3.39,3.39,0,0,1,1.17,2.15,3.34,3.34,0,0,1-1.17,2.14"/></g></g></svg>