<svg xmlns="http://www.w3.org/2000/svg" viewBox="0 0 43.97 48.95"><defs><style>.cls-1{fill:#b99957;}</style></defs><title>drinks</title><g id="Capa_2" data-name="Capa 2"><g id="Capa_1-2" data-name="Capa 1"><path class="cls-1" d="M20.14,5.43,10.87,3.62a1,1,0,0,0-1,.46A47.21,47.21,0,0,0,5,17.31a23.59,23.59,0,0,0-.44,5A17.74,17.74,0,0,0,5,26c.08.35.17.69.28,1,.79,2.53,2.14,4.25,3.87,5l-2,10.78-4.31-.84A2.37,2.37,0,0,0,.24,43.32a3.06,3.06,0,0,0-.15.54,4.67,4.67,0,0,0-.08.52A2.35,2.35,0,0,0,1.9,46.85l10.52,2a2.41,2.41,0,0,0,2.4-1,2.2,2.2,0,0,0,.3-.66,3.78,3.78,0,0,0,.16-.89,2.34,2.34,0,0,0-.47-1.53,2.37,2.37,0,0,0-1.43-.89L9.06,43.1l2-10.79a7.22,7.22,0,0,0,5.17-2.82l.38-.46a18.57,18.57,0,0,0,2.9-5.41,25.54,25.54,0,0,0,.89-3.3A47,47,0,0,0,20.9,6.24a1,1,0,0,0-.76-.81M13.29,46a.46.46,0,0,1,.06.36,1.45,1.45,0,0,1-.08.36.44.44,0,0,1-.49.29L2.27,45a.46.46,0,0,1-.3-.22.72.72,0,0,1,0-.48.63.63,0,0,1,.17-.39.46.46,0,0,1,.37-.11L13,45.83a.36.36,0,0,1,.27.18M11.19,5.64l7.89,1.54A46.3,46.3,0,0,1,18.52,20c-.09.45-.19.89-.3,1.33H6.5a21.59,21.59,0,0,1,.41-3.6,46.54,46.54,0,0,1,4.28-12m5.62,19.5A14.66,14.66,0,0,1,15,28a6.55,6.55,0,0,1-3.17,2.32,3.14,3.14,0,0,1-1.61,0,4.06,4.06,0,0,1-2.28-2,10.89,10.89,0,0,1-1.29-3.94c-.06-.39-.1-.79-.13-1.19H17.63a19.43,19.43,0,0,1-.82,1.94"/><path class="cls-1" d="M16.84,16.66h.09a1,1,0,0,0,.95-.87A46.81,46.81,0,0,0,18,9.73a1,1,0,0,0-1.92.07A44.9,44.9,0,0,1,16,15.62a1,1,0,0,0,.87,1"/><path class="cls-1" d="M43.93,44.09a3.55,3.55,0,0,0-.31-1,2.29,2.29,0,0,0-.6-.71,2.36,2.36,0,0,0-1.92-.47l-4.31.84L34.68,31.94c3.7-1.54,5.51-7.66,4.16-14.63A47.21,47.21,0,0,0,34,4.08a1,1,0,0,0-1-.46L23.72,5.43a1,1,0,0,0-.76.81,47,47,0,0,0,.49,14.08c1.36,7,5.34,12,9.35,12L34.91,43.1l-4.32.84a2.39,2.39,0,0,0-1.84,1.79,3,3,0,0,0,.12,1.6,2.45,2.45,0,0,0,.93,1.22,2.37,2.37,0,0,0,1.76.35l10.51-2a2.37,2.37,0,0,0,1.86-2.76M24.78,7.18l7.89-1.54a46.54,46.54,0,0,1,4.28,12c0,.25.1.5.14.75h-12a47.7,47.7,0,0,1-.29-11.25M42,44.78a.42.42,0,0,1-.28.19L31.19,47a.46.46,0,0,1-.37-.11.63.63,0,0,1-.17-.39.69.69,0,0,1,0-.45.44.44,0,0,1,.31-.25l10.51-2a.45.45,0,0,1,.49.29.86.86,0,0,1,0,.72m-9.32-14.4a4.32,4.32,0,0,1-2.27-.91,9.14,9.14,0,0,1-1.73-1.73,14.65,14.65,0,0,1-.84-1.22,18,18,0,0,1-1.34-2.67,22.41,22.41,0,0,1-1.06-3.5H37.31A17.73,17.73,0,0,1,37,25.59,12,12,0,0,1,36.51,27c-.68,1.76-1.69,2.9-2.87,3.25a3,3,0,0,1-1,.1"/><path class="cls-1" d="M22.75,1a1,1,0,0,0-1.92,0V4.08a1,1,0,0,0,1.92,0Z"/><path class="cls-1" d="M17.89,3.63a1,1,0,0,0,.83.46A.87.87,0,0,0,19.21,4a1,1,0,0,0,.33-1.31L18.35.69a1,1,0,0,0-1.64,1Z"/><path class="cls-1" d="M24.55,4a.93.93,0,0,0,.5.14,1,1,0,0,0,.82-.46l1.18-1.95A1,1,0,0,0,26.73.37a1,1,0,0,0-1.32.32l-1.18,2A1,1,0,0,0,24.55,4"/><path class="cls-1" d="M32,12c.36,1,.69,2,1,3,.12.41.18.83.57,1.07A1,1,0,0,0,35,15c-.12-.5-.27-1-.42-1.48s-.33-1-.5-1.52c-.09-.25-.16-.5-.27-.75a1,1,0,0,0-.33-.41A1,1,0,0,0,32,12"/><path class="cls-1" d="M17.35,19.51a1,1,0,1,1-1-1,1,1,0,0,1,1,1"/><path class="cls-1" d="M32.42,8.08a1,1,0,1,1-1-1,1,1,0,0,1,1,1"/></g></g></svg>