<svg xmlns="http://www.w3.org/2000/svg" viewBox="0 0 11.14 20.61"><defs><style>.cls-1{fill:#9B9897;}</style></defs><title>facebook</title><g id="Capa_2" data-name="Capa 2"><g id="Capa_1-2" data-name="Capa 1"><path class="cls-1" d="M10.72,0H8.05A4.69,4.69,0,0,0,3.11,5.07V7.41H.42A.42.42,0,0,0,0,7.83v3.39a.42.42,0,0,0,.42.42H3.11v8.55a.42.42,0,0,0,.42.42H7a.42.42,0,0,0,.42-.42V11.64H10.6a.42.42,0,0,0,.42-.42V7.83a.43.43,0,0,0-.13-.3.38.38,0,0,0-.29-.12H7.45v-2C7.45,4.48,7.68,4,8.92,4h1.8a.42.42,0,0,0,.42-.42V.42A.42.42,0,0,0,10.72,0Z"/></g></g></svg>
