<svg xmlns="http://www.w3.org/2000/svg" viewBox="0 0 36.3 48.95"><defs><style>.cls-1{fill:#63507c;}</style></defs><title>flowers</title><g id="Capa_2" data-name="Capa 2"><g id="Capa_1-2" data-name="Capa 1"><path class="cls-1" d="M18.15,14.2a.79.79,0,1,1-.79.79.79.79,0,0,1,.79-.79m0,3.16A2.37,2.37,0,1,0,15.78,15a2.38,2.38,0,0,0,2.37,2.37"/><path class="cls-1" d="M25.63,28.87a11.3,11.3,0,0,1,3.71,3.51H7a11.2,11.2,0,0,1,3.71-3.51l.38-.23V22.49l.33-.37H24.92l.33.37v6.15Zm1.31,17.92a2.36,2.36,0,0,1-1.57.58H10.93a2.36,2.36,0,0,1-1.57-.58,12,12,0,0,1-3.51-6.52h21V38.69H25.41l2.21-3.31,2.2,3.31H28.4v1.58h2.05a12,12,0,0,1-3.51,6.52m-16-8.1H6.48l2.2-3.31Zm.95-1.42L9.63,34h4.42Zm5.36,1.42H12.79L15,35.38Zm.95-1.42L15.94,34h4.42Zm5.36,1.42H19.1l2.21-3.31ZM22.25,34h4.42l-2.21,3.31Zm8.52,3.15v.15L28.56,34h1.59a8.46,8.46,0,0,1,.62,3.15M6.15,34H7.74l-2.2,3.3s0-.1,0-.15A8.66,8.66,0,0,1,6.15,34m.1-10.71A6.32,6.32,0,0,1,3.58,23a34.78,34.78,0,0,1,6.2-1.49,6.3,6.3,0,0,1-3.53,1.72m2.8-3.2a35.82,35.82,0,0,0-6.12,1.53,5.53,5.53,0,0,1,6.12-1.53M10.86,15a.79.79,0,1,1-.79-.79.79.79,0,0,1,.79.79m-3.49.88a.8.8,0,0,0-.86-.54,1.7,1.7,0,0,1-.68,0,1.58,1.58,0,0,1,1-3,1.45,1.45,0,0,1,.59.36.79.79,0,0,0,1.26-.91A1.5,1.5,0,0,1,8.49,11,1.57,1.57,0,0,1,10,9.44l.27,0h.08A1.58,1.58,0,0,1,11.65,11a1.64,1.64,0,0,1-.16.67.78.78,0,0,0,.06.77,2.17,2.17,0,0,0-.15.35.85.85,0,0,0,0,.17,2.37,2.37,0,1,0,.82,3,3.17,3.17,0,0,0,.9.63A3.17,3.17,0,0,0,13,19.59a1.59,1.59,0,0,1-1.91-.52,1.63,1.63,0,0,1-.27-.63.78.78,0,0,0-.77-.64h0a.79.79,0,0,0-.78.64v0a7.15,7.15,0,0,0-3.11-.3,1.56,1.56,0,0,1,.3-1A1.43,1.43,0,0,1,7,16.77a.81.81,0,0,0,.37-.94M5.1,6.6A1.57,1.57,0,0,1,7.59,4.74a.79.79,0,0,0,1.25-.91,1.64,1.64,0,0,1-.16-.67,1.58,1.58,0,0,1,3.16,0,1.5,1.5,0,0,1-.16.67.79.79,0,0,0,1.26.91,1.45,1.45,0,0,1,.59-.36,1.58,1.58,0,1,1,.28,3.06A.81.81,0,0,0,13,8a.79.79,0,0,0,.38.93,1.75,1.75,0,0,1,.52.45,1.64,1.64,0,0,1,.26,1.25,3.16,3.16,0,0,0-.92,0,3.12,3.12,0,0,0-1.12-2.05,2.32,2.32,0,0,0,.55-1.49,2.37,2.37,0,1,0-4.73,0,2.32,2.32,0,0,0,.39,1.31,3.18,3.18,0,0,0-1.36,2.23,3.07,3.07,0,0,0-.53-.06,1.57,1.57,0,0,1,.27-1.22,1.53,1.53,0,0,1,.52-.45A.78.78,0,0,0,7.56,8a.8.8,0,0,0-.85-.54A1.57,1.57,0,0,1,5.1,6.6m5,1.26a.78.78,0,0,1-.62-.76.79.79,0,1,1,.85.78l-.23,0M18.4,20.55h-.51a2.85,2.85,0,0,0,.26-.23l.25.23m-1.92-7.86a.78.78,0,0,0,.25-1,1.69,1.69,0,0,1-.16-.68,1.58,1.58,0,0,1,3.16,0,1.54,1.54,0,0,1-.16.68.78.78,0,0,0,.25,1,.8.8,0,0,0,1-.06,1.48,1.48,0,0,1,.58-.36,1.58,1.58,0,1,1,.29,3.06.81.81,0,0,0-.85.54.79.79,0,0,0,.38.93,1.75,1.75,0,0,1,.52.45,1.58,1.58,0,0,1-2.56,1.86,1.52,1.52,0,0,1-.26-.64.79.79,0,0,0-.78-.64.78.78,0,0,0-.77.64,1.67,1.67,0,0,1-.27.64,1.58,1.58,0,1,1-2.55-1.86,1.53,1.53,0,0,1,.52-.45.78.78,0,0,0,.37-.93.79.79,0,0,0-.75-.55h-.1a1.58,1.58,0,1,1,.88-2.7.78.78,0,0,0,1,.06m4.4-6.09a1.58,1.58,0,0,1,1.89-2.22,1.45,1.45,0,0,1,.59.36.79.79,0,0,0,1.26-.91,1.5,1.5,0,0,1-.16-.67,1.58,1.58,0,0,1,3.16,0,1.64,1.64,0,0,1-.16.67.79.79,0,0,0,1.25.91A1.58,1.58,0,0,1,31.2,6.6a1.57,1.57,0,0,1-1.61.84.81.81,0,0,0-.85.54.78.78,0,0,0,.37.93,1.53,1.53,0,0,1,.52.45,1.57,1.57,0,0,1,.27,1.22,2.55,2.55,0,0,0-.54.06A3.14,3.14,0,0,0,28,8.41,2.32,2.32,0,0,0,28.4,7.1a2.37,2.37,0,1,0-4.73,0,2.32,2.32,0,0,0,.55,1.49,3.12,3.12,0,0,0-1.12,2.05,3.17,3.17,0,0,0-.92,0,1.57,1.57,0,0,1,.26-1.24A1.5,1.5,0,0,1,23,8.92a.79.79,0,0,0-.47-1.48,1.57,1.57,0,0,1-1.61-.84M25.44,15A.79.79,0,0,1,27,15a.79.79,0,0,1-1.58,0M25.25,7.1a.79.79,0,0,1,1.58,0,.78.78,0,0,1-.62.76l-.23,0a.79.79,0,0,1-.73-.78m5.22,8.14a1.72,1.72,0,0,1-.68,0,.8.8,0,0,0-.86.54.81.81,0,0,0,.37.94,1.55,1.55,0,0,1,.53.45,1.64,1.64,0,0,1,.29,1,7.15,7.15,0,0,0-3.11.3v0a.79.79,0,0,0-.78-.64.78.78,0,0,0-.77.64,1.63,1.63,0,0,1-.27.63,1.58,1.58,0,0,1-1.91.52,3.15,3.15,0,0,0-.06-2.95,3.17,3.17,0,0,0,.9-.63,2.36,2.36,0,1,0,2.11-3.42,2.41,2.41,0,0,0-1.29.38.85.85,0,0,0,0-.17,3.65,3.65,0,0,0-.14-.35.81.81,0,0,0,0-.77,1.64,1.64,0,0,1-.16-.67A1.58,1.58,0,0,1,26,9.46H26l.28,0A1.57,1.57,0,0,1,27.81,11a1.5,1.5,0,0,1-.16.67.79.79,0,0,0,1.26.91,1.52,1.52,0,0,1,.59-.36,1.56,1.56,0,0,1,1.2.1,1.55,1.55,0,0,1,.78.92,1.58,1.58,0,0,1-1,2m2.9,6.34a35.82,35.82,0,0,0-6.12-1.53,5.53,5.53,0,0,1,6.12,1.53m-3.32,1.67a6.3,6.3,0,0,1-3.53-1.72A34.78,34.78,0,0,1,32.72,23a6.32,6.32,0,0,1-2.67.23m-.22,1.56a8.11,8.11,0,0,0,1.09.08,7.83,7.83,0,0,0,4.75-1.61l.63-.48-1.43-1.88a7.06,7.06,0,0,0-3.19-2.36,3.13,3.13,0,0,0-.38-2A3.15,3.15,0,0,0,33,12.76a3.11,3.11,0,0,0-1.54-1.82,3.11,3.11,0,0,0-.33-2.19,3.16,3.16,0,0,0-1.94-6,3.16,3.16,0,0,0-6.27,0,3.15,3.15,0,0,0-3.61,2.12,3.09,3.09,0,0,0,.19,2.4A3.07,3.07,0,0,0,21,8.75a2.42,2.42,0,0,0-.23.52,3.12,3.12,0,0,0-5.18,0,2.66,2.66,0,0,0-.23-.52,3.11,3.11,0,0,0,1.5-1.43A3.17,3.17,0,0,0,13.4,2.79a3.16,3.16,0,0,0-6.27,0,3.16,3.16,0,0,0-1.94,6,3.14,3.14,0,0,0-.32,2.19,3.12,3.12,0,0,0-1.55,1.82A3.15,3.15,0,0,0,5,16.6a3.13,3.13,0,0,0-.38,2,7,7,0,0,0-3.19,2.36L0,22.8l.63.48a7.83,7.83,0,0,0,4.75,1.61,8.11,8.11,0,0,0,1.09-.08,7.8,7.8,0,0,0,3-1.06v4A11.3,11.3,0,0,0,4,37.11,14.5,14.5,0,0,0,8.31,48a3.91,3.91,0,0,0,2.62,1H25.37A3.91,3.91,0,0,0,28,48a14.5,14.5,0,0,0,4.36-10.85,11.3,11.3,0,0,0-5.52-9.35v-4a7.8,7.8,0,0,0,3,1.06"/></g></g></svg>