<svg xmlns="http://www.w3.org/2000/svg" viewBox="0 0 20.61 20.61"><defs><style>.cls-1{fill:#9B9897;}</style></defs><title>instagram</title><g id="Capa_2" data-name="Capa 2"><g id="Capa_1-2" data-name="Capa 1"><path class="cls-1" d="M15.41,0H5.2A5.2,5.2,0,0,0,0,5.2V15.41a5.2,5.2,0,0,0,5.2,5.2H15.41a5.2,5.2,0,0,0,5.2-5.2V5.2A5.2,5.2,0,0,0,15.41,0Zm3,15.41a3,3,0,0,1-3,2.95H5.2a3,3,0,0,1-3-2.95V5.2a3,3,0,0,1,3-3H15.41a3,3,0,0,1,3,3Z"/><circle class="cls-1" cx="15.78" cy="4.84" r="1.26"/><path class="cls-1" d="M10.31,5a5.31,5.31,0,1,0,5.3,5.3A5.3,5.3,0,0,0,10.31,5Zm0,8.37a3.07,3.07,0,1,1,3.06-3.07A3.08,3.08,0,0,1,10.31,13.37Z"/></g></g></svg>
