<svg xmlns="http://www.w3.org/2000/svg" viewBox="0 0 48.93 48.94"><defs><style>.cls-1{fill:#b99957;}</style></defs><title>lights</title><g id="Capa_2" data-name="Capa 2"><g id="Capa_1-2" data-name="Capa 1"><path class="cls-1" d="M46.49,21.2H40a.82.82,0,0,0-.8.68l-1.63,9a.83.83,0,0,0,.8,1h4.06a8.56,8.56,0,0,1-17.11-.41V23.31a6.11,6.11,0,0,0,10.6-4.14v-2H40a.83.83,0,0,0,.81-1l-1.64-9a.82.82,0,0,0-.8-.67H31.81a.83.83,0,0,0-.81.67l-1.63,9a.83.83,0,0,0,.81,1h4.07v2a4.49,4.49,0,0,1-9,0V1.63h.82a.81.81,0,0,0,.81-.81A.81.81,0,0,0,26.1,0H22.84a.82.82,0,1,0,0,1.63h.81V19.17a4.49,4.49,0,0,1-9,0v-2h4.08a.83.83,0,0,0,.8-1l-1.63-9a.82.82,0,0,0-.8-.67H10.6a.82.82,0,0,0-.8.67l-1.63,9a.83.83,0,0,0,.8,1h4.08v2a6.11,6.11,0,0,0,10.6,4.14V31.4a8.55,8.55,0,0,1-17.1.41H10.6a.83.83,0,0,0,.63-.3.79.79,0,0,0,.17-.66l-1.63-9A.82.82,0,0,0,9,21.2H2.45a.83.83,0,0,0-.81.68L0,30.85a.8.8,0,0,0,.18.66.8.8,0,0,0,.63.3H4.89V42.56a2.45,2.45,0,1,0,1.63,0V36.91a10.18,10.18,0,0,0,17.13,0v7.28a2.45,2.45,0,1,0,1.63,0V36.91a10.18,10.18,0,0,0,17.13,0v5.65a2.45,2.45,0,1,0,1.63,0V31.81h4.08a.83.83,0,0,0,.8-1l-1.63-9a.82.82,0,0,0-.8-.68m-14-13h5.16L39,15.5H31.15Zm-21.21,0h5.17l1.33,7.34H10Zm-9.49,22,1.34-7.34H8.29l1.33,7.34ZM5.71,45.67a.82.82,0,0,1-.82-.81A.82.82,0,0,1,5.71,44a.82.82,0,0,1,.81.82.81.81,0,0,1-.81.81M24.47,47.3a.82.82,0,0,1-.82-.81.82.82,0,0,1,.82-.82.82.82,0,0,1,.81.82.81.81,0,0,1-.81.81m18.75-1.63a.81.81,0,0,1-.81-.81.82.82,0,1,1,.81.81M39.31,30.18l1.33-7.34h5.17l1.33,7.34Z"/></g></g></svg>