<svg xmlns="http://www.w3.org/2000/svg" viewBox="0 0 14.22 14.87"><defs><style>.cls-1{fill:#63507c;}</style></defs><title>login</title><g id="Capa_2" data-name="Capa 2"><g id="Capa_1-2" data-name="Capa 1"><path class="cls-1" d="M7.11,10.59a5.3,5.3,0,1,1,5.3-5.29A5.3,5.3,0,0,1,7.11,10.59ZM7.11,1a4.3,4.3,0,1,0,4.3,4.3A4.31,4.31,0,0,0,7.11,1Z"/><path class="cls-1" d="M14.22,14.87h-1A6.11,6.11,0,0,0,9.93,9.44l.46-.88a6.81,6.81,0,0,1,1.75,1.28A7.07,7.07,0,0,1,14.22,14.87Z"/><path class="cls-1" d="M1,14.87H0A7.08,7.08,0,0,1,3.83,8.56l.46.88A6.11,6.11,0,0,0,1,14.87Z"/></g></g></svg>