<svg xmlns="http://www.w3.org/2000/svg" viewBox="0 0 24.49 18.69"><defs><style>.cls-1{fill:#9B9897;}</style></defs><title>mail</title><g id="Capa_2" data-name="Capa 2"><g id="Capa_1-2" data-name="Capa 1"><path class="cls-1" d="M18.38,0H6.11A6.12,6.12,0,0,0,0,6.11v6.47a6.12,6.12,0,0,0,6.11,6.11H18.38a6.12,6.12,0,0,0,6.11-6.11V6.11A6.12,6.12,0,0,0,18.38,0Zm4,6.11v6.47a4,4,0,0,1-4,4H6.11a4,4,0,0,1-4-4V6.11a4,4,0,0,1,4-4H18.38A4,4,0,0,1,22.38,6.11Z"/><path class="cls-1" d="M15.64,9.39l5-3.46a1.08,1.08,0,0,0,.44-.68A1.08,1.08,0,0,0,20.22,4a1,1,0,0,0-.79.17l-7.18,5-7.19-5A1,1,0,0,0,4.27,4a1,1,0,0,0-.68.43,1.06,1.06,0,0,0,.26,1.48l5,3.46-5,3.94a1,1,0,0,0-.4.7,1,1,0,0,0,.21.78,1.06,1.06,0,0,0,.84.41A1,1,0,0,0,5.11,15l5.56-4.33,1.58,1.09,1.57-1.09L19.38,15a1.05,1.05,0,0,0,1.49-.18,1.09,1.09,0,0,0,.22-.78,1.07,1.07,0,0,0-.4-.7Z"/></g></g></svg>
