<svg xmlns="http://www.w3.org/2000/svg" viewBox="0 0 15.35 16.36"><defs><style>.cls-1{fill:#fff;}</style></defs><title>phone</title><g id="Capa_2" data-name="Capa 2"><g id="Capa_1-2" data-name="Capa 1"><path class="cls-1" d="M14.08,11l-.54-.46c-.53-.45-2.12-1.82-3.69-.46l-.52.46-.21.21c-.19.21-.29.28-.41.28s-.82-.13-2.2-1.71S5.09,7.05,5.12,6.88s.08-.2.34-.37l.23-.17.54-.46c1.55-1.36.42-3.13,0-3.71L5.9,1.56A3,3,0,0,0,4,0a1.81,1.81,0,0,0-1.49.5L2.12.9A5.19,5.19,0,0,0,.07,4.36c-.36,2.34.71,5,3.16,7.78s4.86,4.22,7.21,4.22h.06a5.26,5.26,0,0,0,3.67-1.5l.48-.42a1.79,1.79,0,0,0,.7-1.4A3,3,0,0,0,14.08,11ZM1.57,4.59A3.75,3.75,0,0,1,3.06,2.08l.48-.41c.17-.15.25-.15.26-.15h0s.3.08.81.86L5,3c.8,1.25.47,1.54.23,1.75l-.53.46.2.23h0l-.29-.17a2,2,0,0,0-1,1.43c-.12.94.45,2.12,1.75,3.61s2.39,2.23,3.34,2.24a2.07,2.07,0,0,0,1.57-.81l.05-.06.53-.46c.24-.21.57-.5,1.7.47l.54.46c.71.61.75.87.75.92a.48.48,0,0,1-.19.25l-.52.46a3.79,3.79,0,0,1-2.65,1.09c-1.88,0-4-1.23-6.1-3.7S1.28,6.47,1.57,4.59Zm8.87,11.47Z"/></g></g></svg>