<svg xmlns="http://www.w3.org/2000/svg" viewBox="0 0 40.21 40.21"><defs><style>.cls-1{fill:#fff;}.cls-2{fill:#55cd6c;}</style></defs><title>phone-wtsp</title><g id="Capa_2" data-name="Capa 2"><g id="Capa_1-2" data-name="Capa 1"><path class="cls-1" d="M8.88,36.69l.75.42a19.86,19.86,0,0,0,10.47,3.1A20.31,20.31,0,0,0,40.21,19.94,20,20,0,0,0,20,0,20,20,0,0,0,0,19.94a20.28,20.28,0,0,0,3.1,10.8l.5.76-1.92,7Z"/><path class="cls-2" d="M13.57,8.71,12,8.63a1.92,1.92,0,0,0-1.34.5,7,7,0,0,0-2.35,3.6c-.58,2.52.34,5.53,2.52,8.55a25.39,25.39,0,0,0,13.73,10,6.82,6.82,0,0,0,5.7-.67,5,5,0,0,0,2.18-3.19l.25-1.17a.84.84,0,0,0-.42-.92L27,22.87a.78.78,0,0,0-1,.25l-2.1,2.68a.65.65,0,0,1-.67.17,16.28,16.28,0,0,1-8.79-7.54.62.62,0,0,1,.08-.67l2-2.26a1,1,0,0,0,.17-.84L14.24,9.21a.72.72,0,0,0-.67-.5"/></g></g></svg>