<svg xmlns="http://www.w3.org/2000/svg" viewBox="0 0 17.83 19"><defs><style>.cls-1{fill:#9B9897;}</style></defs><title>phone</title><g id="Capa_2" data-name="Capa 2"><g id="Capa_1-2" data-name="Capa 1"><path class="cls-1" d="M16.35,12.75l-.63-.54c-.61-.52-2.46-2.1-4.28-.53l-.61.53a3,3,0,0,0-.24.25c-.22.24-.34.32-.48.33s-.95-.15-2.55-2S5.91,8.18,5.94,8s.1-.23.4-.43l.27-.2.62-.54c1.81-1.57.49-3.63.06-4.3l-.45-.71A3.42,3.42,0,0,0,4.68,0,2.1,2.1,0,0,0,3,.61L2.46,1a6.09,6.09,0,0,0-2.38,4c-.41,2.71.82,5.75,3.67,9S9.39,19,12.12,19h.07a6.08,6.08,0,0,0,4.26-1.75l.56-.48a2.15,2.15,0,0,0,.82-1.63A3.5,3.5,0,0,0,16.35,12.75ZM1.82,5.33A4.35,4.35,0,0,1,3.55,2.42l.56-.48c.19-.18.29-.18.3-.18h0c.05,0,.35.09.93,1l.45.7c.93,1.46.54,1.79.26,2L5.46,6l.23.27h0l-.34-.2A2.31,2.31,0,0,0,4.2,7.76c-.15,1.08.52,2.45,2,4.19S9,14.54,10.1,14.55a2.38,2.38,0,0,0,1.82-1l.07-.06L12.6,13c.28-.24.66-.57,2,.55l.63.54c.82.7.87,1,.87,1.06a.58.58,0,0,1-.22.29l-.61.54a4.33,4.33,0,0,1-3.07,1.26c-2.19,0-4.6-1.43-7.09-4.29S1.49,7.51,1.82,5.33Zm10.3,13.32Z"/></g></g></svg>
