<svg xmlns="http://www.w3.org/2000/svg" viewBox="0 0 171.8 42.61"><defs><style>.cls-1{opacity:0.5;}.cls-2{fill:#211915;}</style></defs><title>sociall-logo-footer</title><g id="Capa_2" data-name="Capa 2"><g id="Capa_1-2" data-name="Capa 1"><g class="cls-1"><path class="cls-2" d="M6.48,11.09a7.42,7.42,0,0,1-1.75-1,3,3,0,0,1-.94-1.22,4.9,4.9,0,0,1-.28-1.77A3.73,3.73,0,0,1,4,5.34a4.61,4.61,0,0,1,1.2-1.48,6,6,0,0,1,1.75-1A6,6,0,0,1,9,2.48a6.06,6.06,0,0,1,1.26.11,4.13,4.13,0,0,1,.88.31,4.61,4.61,0,0,1,.72.46c.22.18.48.37.77.58a2.83,2.83,0,0,1,.66.62l2.42-1.1c-.38-.4-.78-.8-1.22-1.21A9.22,9.22,0,0,0,13,1.14a9,9,0,0,0-1.81-.8A6.92,6.92,0,0,0,9,0,8.3,8.3,0,0,0,6.19.53,8.44,8.44,0,0,0,3.66,2,7.57,7.57,0,0,0,1.82,4.21a6,6,0,0,0-.71,2.91A6.76,6.76,0,0,0,1.64,10a5.25,5.25,0,0,0,1.48,1.88,9.61,9.61,0,0,0,2.29,1.31l1.65.67L8.91,12C8,11.67,7.15,11.37,6.48,11.09Z"/><path class="cls-2" d="M12.36,24.47a6.29,6.29,0,0,1-2.1,1A7.92,7.92,0,0,1,8,25.69c-.37,0-.73,0-1.09-.06a4.06,4.06,0,0,1-1.09-.22,5.66,5.66,0,0,1-1.21-.57,8.84,8.84,0,0,1-1.43-1.13c-.22-.21-.61-.54-.88-.83L0,23.68a8.84,8.84,0,0,0,.76,1.1A9.73,9.73,0,0,0,1.9,26,8.92,8.92,0,0,0,8,28.13a10.88,10.88,0,0,0,3.45-.54,8.69,8.69,0,0,0,2.83-1.54,7.58,7.58,0,0,0,1.92-2.45,7.29,7.29,0,0,0,.71-3.25,9.37,9.37,0,0,0-.55-3.28,5.49,5.49,0,0,0-1.89-2.53,9.21,9.21,0,0,0-1.08-.72,12.58,12.58,0,0,0-1.22-.6L11.6,13,9.71,14.9l1.08.39a7.94,7.94,0,0,1,1.93,1A4.12,4.12,0,0,1,14,17.83a5.76,5.76,0,0,1,.46,2.52,4.82,4.82,0,0,1-.59,2.44A5.19,5.19,0,0,1,12.36,24.47Z"/><path class="cls-2" d="M48.61,5.14,46.88,6.87a12.05,12.05,0,0,1,1.6,2.66,11.37,11.37,0,0,1,.92,4.54A11.84,11.84,0,0,1,49,17.18,11.5,11.5,0,0,1,47.8,20a11.63,11.63,0,0,1-16,4.19,12.54,12.54,0,0,1-1.33-.92L28.8,25a14.34,14.34,0,0,0,3.45,2.1,14.2,14.2,0,0,0,11,0,14.39,14.39,0,0,0,4.47-3,14.08,14.08,0,0,0,3-4.47,13.67,13.67,0,0,0,1.11-5.49,13.66,13.66,0,0,0-1.11-5.48A14.27,14.27,0,0,0,48.61,5.14Z"/><path class="cls-2" d="M27.65,20a12.31,12.31,0,0,1-1.18-2.79,11.69,11.69,0,0,1,0-6.21,12.31,12.31,0,0,1,1.18-2.79,11.39,11.39,0,0,1,1.83-2.36A12,12,0,0,1,31.84,4a11.63,11.63,0,0,1,2.78-1.18,11.77,11.77,0,0,1,3.1-.41,11.3,11.3,0,0,1,4.54.92A11.86,11.86,0,0,1,45.05,5l1.72-1.72A14.5,14.5,0,0,0,43.21,1.1a14.2,14.2,0,0,0-11,0,14.51,14.51,0,0,0-4.47,3,14.14,14.14,0,0,0-3,4.47,13.83,13.83,0,0,0-1.1,5.48,13.84,13.84,0,0,0,1.1,5.49,14.5,14.5,0,0,0,2.19,3.56l1.71-1.71A11.19,11.19,0,0,1,27.65,20Z"/><polygon class="cls-2" points="93.75 0.33 91.35 0.33 91.35 11.7 93.75 9.3 93.75 0.33"/><polygon class="cls-2" points="93.75 27.84 93.75 12.99 91.35 15.39 91.35 27.84 93.75 27.84"/><polygon class="cls-2" points="136.55 0.33 134.15 0.33 134.15 25.79 136.55 23.39 136.55 0.33"/><polygon class="cls-2" points="149.15 27.84 149.15 25.44 138.18 25.44 135.78 27.84 149.15 27.84"/><polygon class="cls-2" points="159.21 0.33 156.81 0.33 156.81 26.04 159.21 23.64 159.21 0.33"/><polygon class="cls-2" points="161.09 25.44 158.69 27.84 171.8 27.84 171.8 25.44 161.09 25.44"/><path class="cls-2" d="M83,4h0a13.9,13.9,0,0,0-4.39-2.91,14.23,14.23,0,0,0-10.85.05,14.39,14.39,0,0,0-4.47,3,14.08,14.08,0,0,0-3,4.47,13.48,13.48,0,0,0-1.07,4.49L62.32,10a10.68,10.68,0,0,1,.85-1.81A11,11,0,0,1,65,5.82,12.33,12.33,0,0,1,67.35,4a12.1,12.1,0,0,1,1.82-.86l.08-.08,0,0c.28-.1.56-.2.85-.28a11.71,11.71,0,0,1,3.1-.41A11.18,11.18,0,0,1,76.79,3a10.74,10.74,0,0,1,1.87.8,30,30,0,0,1,2.5,1.76L83.05,4Z"/><path class="cls-2" d="M81.16,22.66S80,23.62,79,24.23a12.87,12.87,0,0,1-2.21,1,11.21,11.21,0,0,1-3.54.55,11.71,11.71,0,0,1-3.1-.41,11.88,11.88,0,0,1-2.79-1.18A12.33,12.33,0,0,1,65,22.33,11,11,0,0,1,63.17,20,11.88,11.88,0,0,1,62,17.18a11,11,0,0,1-.41-2.76L59.4,16.59a13.75,13.75,0,0,0,.89,3,14.08,14.08,0,0,0,3,4.47,14.39,14.39,0,0,0,4.47,3,13.71,13.71,0,0,0,5.47,1.1,13.88,13.88,0,0,0,5.36-1,15.38,15.38,0,0,0,2-1l0,0,.18-.12A14.24,14.24,0,0,0,83,24.26l.08-.07Z"/><rect class="cls-2" x="141.65" y="38.35" width="30.16" height="0.75"/><rect class="cls-2" y="38.35" width="30.16" height="0.75"/><path class="cls-2" d="M43.34,41.85h-3.9v-3h3.31c.08,0,.12,0,.12-.13v-.39c0-.09,0-.13-.12-.13H39.43V35.59h3.9c.09,0,.13,0,.13-.12v-.4c0-.08,0-.12-.13-.12H38.83a.11.11,0,0,0-.12.12l0,7.3a.11.11,0,0,0,.12.12h4.54c.09,0,.13,0,.13-.12V42C43.47,41.89,43.43,41.85,43.34,41.85Z"/><path class="cls-2" d="M61.87,35h-.46a.16.16,0,0,0-.15.1l-2.38,6.47h-.06l-2.38-6.47a.14.14,0,0,0-.14-.1h-.46c-.1,0-.14,0-.11.14l2.66,7.3a.16.16,0,0,0,.15.1h.63a.14.14,0,0,0,.14-.1L62,35.09C62,35,62,35,61.87,35Z"/><path class="cls-2" d="M79,41.85h-3.9v-3h3.31c.08,0,.12,0,.12-.13v-.39c0-.09,0-.13-.12-.13H75.13V35.59H79c.08,0,.13,0,.13-.12v-.4c0-.08-.05-.12-.13-.12H74.53a.11.11,0,0,0-.12.12l0,7.3a.11.11,0,0,0,.12.12H79c.09,0,.13,0,.13-.12V42C79.17,41.89,79.13,41.85,79,41.85Z"/><path class="cls-2" d="M97.36,35h-.45c-.08,0-.13,0-.13.12l0,6.49-4-6.53a.14.14,0,0,0-.14-.08h-.73c-.09,0-.13,0-.13.12l0,7.3c0,.08,0,.12.13.12h.5a.11.11,0,0,0,.12-.12l0-6.65,4.1,6.69a.18.18,0,0,0,.15.08h.7a.11.11,0,0,0,.12-.12l0-7.3A.11.11,0,0,0,97.36,35Z"/><path class="cls-2" d="M115.41,35H110a.11.11,0,0,0-.12.12v.4a.11.11,0,0,0,.12.12h2.36l0,6.78a.11.11,0,0,0,.12.12H113a.11.11,0,0,0,.12-.12l0-6.78h2.35a.11.11,0,0,0,.12-.12v-.4A.11.11,0,0,0,115.41,35Z"/><path class="cls-2" d="M130.81,38.31l-.45-.14c-1.24-.38-1.89-.7-1.89-1.47s.65-1.22,1.74-1.22a2.19,2.19,0,0,1,2,1.14.14.14,0,0,0,.14.09h.45c.09,0,.13-.05.1-.15a2.72,2.72,0,0,0-2.66-1.73c-1.44,0-2.55.74-2.53,2s.84,1.59,2.22,2l.46.14c1.34.43,2,.9,2,1.69s-.7,1.31-1.87,1.31a2.27,2.27,0,0,1-2.34-1.4.15.15,0,0,0-.15-.09h-.47c-.09,0-.13.05-.11.13a2.87,2.87,0,0,0,3,2c1.62,0,2.65-.79,2.65-2.06C133.13,39.51,132.43,38.81,130.81,38.31Z"/><polygon class="cls-2" points="115.33 6.76 114.85 6.58 114.85 5.96 114.18 5.96 114.85 5.88 114.94 5.87 117.42 5.58 117.46 5.58 117.43 5.29 117.37 4.84 117.1 4.87 114.63 5.16 113.53 5.29 113.11 5.34 113.66 4.98 114.37 4.53 115.67 3.71 115.62 3.63 115.44 3.35 115.27 3.08 114.83 3.35 114.39 3.63 114.18 3.77 113.99 3.89 112.63 4.75 113.22 3.63 113.37 3.35 114.51 1.19 113.85 0.84 112.53 3.35 112.38 3.63 111.97 4.4 111.95 3.63 111.94 3.35 111.93 2.99 111.86 0.86 111.21 0.89 111.11 0.89 111.19 3.35 111.23 4.5 110.4 3.35 110.1 2.94 109.53 3.35 109.49 3.38 110.76 5.12 107.58 4 107.33 4.71 110.52 5.83 110.13 5.96 107.52 6.88 107.77 7.58 110.31 6.69 102.92 23.61 102.92 23.61 101.07 27.84 102.14 27.84 103.71 27.84 105.52 23.61 106.5 21.33 107.58 18.93 112.61 7.39 114.2 9.2 114.76 8.7 113.01 6.71 114.85 7.38 115.74 7.7 117.27 8.25 117.52 7.55 115.33 6.76"/><path class="cls-2" d="M125.44,23.94l-1.3-3c-.82-1.9-1.65-3.78-2.48-5.67l2.77,1.59.37-.65-3.64-2.09v0l0-.07,4,.23,0-.75-4.29-.25,2.8-1.16-.28-.69-2.11.88-.76.31h0l0,0,.76-1,1.69-2.18L122.35,9l-1.1,1.42-1.1,1.43-.27.34.1-.71.4-2.8-.73-.1-.23,1.61-.28,2-.85-1.73-.67.33.95,1.93-.9-.5-2-1.15-.36.65,2.51,1.41.4.22v0l-3.11.51.12.74L118.4,14l-1.63,1.81.55.5,1.47-1.63,1.85,4.23,1,2.4,1.76,4,1.09,2.49h2.6Z"/></g></g></g></svg>