<svg xmlns="http://www.w3.org/2000/svg" viewBox="0 0 53.39 48.94"><defs><style>.cls-1{fill:#63507c;}</style></defs><title>table</title><g id="Capa_2" data-name="Capa 2"><g id="Capa_1-2" data-name="Capa 1"><path class="cls-1" d="M39.23,13.85c-3-.26-6.37-.43-9.85-.48l0,1.78c3.44,0,6.72.21,9.73.47Z"/><path class="cls-1" d="M24,15.15l0-1.78c-2.9.05-5.72.17-8.36.36l.13,1.77c2.61-.19,5.39-.31,8.26-.35"/><path class="cls-1" d="M1.78,20.22c5.82,2.88,24,2.92,24.92,2.92s19.09,0,24.91-2.92V33.8a12.62,12.62,0,0,1-4-.83A14.48,14.48,0,0,0,42.18,32a14.29,14.29,0,0,0-5.45.93,12.75,12.75,0,0,1-4.88.85A12.67,12.67,0,0,1,27,33,14.48,14.48,0,0,0,21.53,32a14.32,14.32,0,0,0-5.45.93,12.63,12.63,0,0,1-4.87.85A12.7,12.7,0,0,1,6.34,33a14.23,14.23,0,0,0-4.56-.91ZM27.64,47.16H25.76L25,34.21c.51.13,1,.29,1.41.45a18.31,18.31,0,0,0,2,.6ZM5.76,34.66a14.49,14.49,0,0,0,5.45.94,14.49,14.49,0,0,0,5.45-.94,12.69,12.69,0,0,1,4.87-.84,16.5,16.5,0,0,1,1.67.07L24,47.16h-3.5v1.78H32.93V47.16h-3.5l.77-11.63c.5,0,1,.07,1.65.07a14.49,14.49,0,0,0,5.45-.94,12.74,12.74,0,0,1,4.88-.84,12.66,12.66,0,0,1,4.87.84,14.49,14.49,0,0,0,5.45.94.89.89,0,0,0,.89-.89V18.24c0-1.15-1-2.63-8.75-3.78l-.26,1.76c5.61.84,6.92,1.77,7.19,2-1.07,1.3-10.25,3.11-24.87,3.11S2.89,19.55,1.83,18.25C2.11,18,3.51,17,9.69,16.13l-.25-1.76C2.08,15.38.36,16.68.06,17.8H0v16H.89a12.66,12.66,0,0,1,4.87.84"/><rect class="cls-1" x="19.58" width="1.78" height="1.78"/><rect class="cls-1" x="25.81" width="1.78" height="1.78"/><rect class="cls-1" x="32.04" width="1.78" height="1.78"/><path class="cls-1" d="M32.93,16.91H27.59V11.57h3.56A2.68,2.68,0,0,0,33.82,8.9V3.56H32V8.9a.89.89,0,0,1-.89.89H27.59V3.56H25.81V9.79H22.25a.89.89,0,0,1-.89-.89V3.56H19.58V8.9a2.67,2.67,0,0,0,2.67,2.67h3.56v5.34H20.47v1.78H32.93Z"/><path class="cls-1" d="M41.82,12.46a.89.89,0,0,1-.89-.89v-.89h1.78v.89a.89.89,0,0,1-.89.89m2.67-.89V8H42.71V8.9H40.93V8H39.16v3.56a2.64,2.64,0,0,0,1.77,2.5v2.84H40v1.78H43.6V16.91h-.89V14.07a2.64,2.64,0,0,0,1.78-2.5"/><path class="cls-1" d="M12.46,12.46a.89.89,0,0,1-.89-.89v-.89h1.78v.89a.89.89,0,0,1-.89.89m2.67-.89V8H13.35V8.9H11.57V8H9.79v3.56a2.65,2.65,0,0,0,1.78,2.5v2.84h-.89v1.78h3.56V16.91h-.89V14.07a2.67,2.67,0,0,0,1.78-2.5"/><rect class="cls-1" x="20.47" y="24.92" width="1.78" height="5.34"/><rect class="cls-1" x="31.15" y="24.92" width="1.78" height="7.12"/><rect class="cls-1" x="41.82" y="24.03" width="1.78" height="6.23"/><rect class="cls-1" x="10.68" y="24.92" width="1.78" height="7.12"/></g></g></svg>