<svg xmlns="http://www.w3.org/2000/svg" viewBox="0 0 23.4 24.23"><defs><style>.cls-1{fill:#211915;}</style></defs><title>vengalas</title><g id="Capa_2" data-name="Capa 2"><g id="Capa_1-2" data-name="Capa 1"><polygon class="cls-1" points="12.79 5.31 12.37 5.16 12.37 4.6 11.77 4.6 12.37 4.53 12.45 4.52 14.67 4.26 14.71 4.25 14.68 4 14.63 3.59 14.39 3.62 12.17 3.88 11.18 3.99 10.8 4.04 11.3 3.72 11.94 3.32 13.1 2.57 13.06 2.51 12.9 2.26 12.74 2.01 12.35 2.26 11.96 2.51 11.77 2.63 11.6 2.74 10.38 3.52 10.91 2.51 11.04 2.26 12.06 0.31 11.47 0 10.28 2.26 10.15 2.51 9.79 3.2 9.76 2.51 9.76 2.26 9.74 1.93 9.68 0.03 9.1 0.04 9.01 0.05 9.09 2.26 9.12 3.28 8.37 2.26 8.1 1.89 7.6 2.26 7.56 2.28 8.7 3.84 5.84 2.84 5.62 3.47 8.48 4.48 8.13 4.6 5.79 5.42 6.01 6.05 8.29 5.25 1.66 20.44 1.66 20.44 0 24.23 0.96 24.23 2.37 24.23 4 20.44 4.88 18.39 5.84 16.24 10.36 5.88 11.79 7.5 12.29 7.06 10.72 5.27 12.37 5.87 13.16 6.16 14.54 6.66 14.77 6.03 12.79 5.31"/><path class="cls-1" d="M21.87,20.73,20.7,18c-.73-1.7-1.48-3.4-2.22-5.09L21,14.38l.33-.58L18,11.92h0l0-.07,3.56.2,0-.67-3.85-.22,2.52-1L20,9.49l-1.89.78-.68.28h0l0,0,.68-.88,1.52-2-.53-.41-1,1.28-1,1.28-.24.3.1-.64L17.33,7l-.66-.09-.2,1.44-.26,1.76-.76-1.54-.6.29.85,1.73-.8-.45-1.84-1-.33.58L15,11l.35.2v0l-2.79.46.11.66,2.89-.47-1.47,1.62.49.45,1.32-1.46,1.66,3.8,1,2.15L20.09,22l1,2.23H23.4Z"/></g></g></svg>